<?xml version="1.0" standalone="no"?>
<!DOCTYPE svg PUBLIC "-//W3C//DTD SVG 20010904//EN"
 "http://www.w3.org/TR/2001/REC-SVG-20010904/DTD/svg10.dtd">
<svg version="1.0" xmlns="http://www.w3.org/2000/svg"
 width="500.000000pt" height="500.000000pt" viewBox="0 0 500.000000 500.000000"
 preserveAspectRatio="xMidYMid meet">

<g transform="translate(0.000000,500.000000) scale(0.100000,-0.100000)"
fill="#000000" stroke="none">
<path d="M2304 4736 c-18 -14 -19 -33 -22 -590 l-2 -576 -60 0 c-78 0 -246
-25 -340 -51 -190 -53 -378 -144 -529 -258 -42 -31 -81 -60 -88 -64 -7 -5 -36
12 -73 42 -159 128 -342 172 -520 126 -67 -17 -249 -107 -309 -152 -41 -31
-81 -114 -81 -169 0 -52 41 -135 83 -167 86 -65 157 -61 314 18 95 48 119 57
149 52 38 -6 134 -73 134 -93 0 -7 -17 -43 -39 -81 -21 -37 -48 -89 -59 -114
l-21 -47 -68 26 c-58 22 -85 26 -178 26 -186 1 -289 -44 -459 -205 -101 -95
-125 -138 -126 -219 0 -46 6 -66 33 -110 42 -70 96 -100 179 -100 75 0 112 19
208 108 41 38 85 74 97 80 33 18 87 14 149 -11 l56 -22 -6 -74 c-3 -41 -6
-110 -6 -155 l0 -81 -38 -3 c-164 -11 -263 -39 -358 -101 -123 -80 -195 -183
-249 -353 -61 -192 -57 -253 20 -333 83 -85 210 -87 297 -6 34 31 46 55 84
165 24 71 51 137 60 147 10 11 33 23 53 28 55 15 225 31 232 23 3 -4 29 -55
56 -113 l51 -107 -107 -41 c-133 -53 -185 -86 -260 -166 -112 -121 -151 -239
-151 -466 l0 -147 33 -48 c48 -69 103 -97 187 -92 53 3 73 9 112 36 70 48 88
94 98 253 11 155 18 170 98 206 73 32 262 103 274 103 6 0 36 -22 67 -49 98
-85 240 -173 286 -179 36 -4 43 -1 59 22 9 15 16 39 14 54 -3 28 -14 37 -175
147 -279 192 -495 523 -570 875 -26 120 -26 440 0 558 28 129 74 257 134 373
202 392 579 666 1023 745 114 20 553 29 740 16 155 -12 237 -27 365 -69 561
-183 945 -693 972 -1289 28 -620 -375 -1204 -964 -1398 -180 -60 -243 -68
-579 -73 -346 -6 -486 3 -647 42 -130 32 -166 21 -166 -50 0 -58 30 -74 224
-112 78 -16 146 -18 510 -18 465 0 493 3 708 75 181 61 384 175 503 283 29 26
58 47 64 47 12 0 200 -70 280 -103 60 -26 83 -59 91 -135 5 -37 8 -92 9 -122
0 -76 16 -124 52 -166 87 -99 240 -100 322 -3 56 67 59 80 53 244 -3 86 -12
174 -21 205 -26 93 -77 180 -146 250 -69 70 -136 109 -267 160 -46 17 -83 33
-83 36 0 4 100 215 105 221 3 5 236 -26 248 -33 41 -23 60 -56 93 -161 20 -62
49 -130 64 -151 51 -70 159 -100 245 -68 96 37 159 154 135 250 -21 81 -73
232 -95 276 -59 117 -188 229 -310 270 -34 11 -110 27 -169 34 -58 7 -108 15
-110 17 -3 3 -6 72 -7 154 l-1 150 48 22 c27 12 70 22 96 22 51 1 61 -6 171
-109 72 -68 119 -90 192 -90 102 0 182 64 205 164 13 57 4 114 -24 159 -36 58
-210 211 -284 250 -135 71 -302 85 -438 38 -32 -12 -63 -22 -67 -24 -5 -1 -13
5 -17 13 -113 205 -121 223 -103 243 30 34 105 77 134 77 15 0 78 -25 140 -57
160 -80 234 -82 315 -10 57 49 77 99 72 177 -6 109 -41 146 -223 240 -131 67
-198 83 -323 78 -136 -6 -218 -36 -338 -127 l-85 -63 -57 45 c-251 197 -548
311 -867 335 l-100 7 -3 240 c-2 235 -3 240 -25 257 -31 25 -64 22 -92 -7
l-25 -24 0 -236 0 -235 -69 0 c-67 0 -69 1 -74 28 -3 15 -5 248 -4 517 l2 490
73 3 72 3 0 -166 c0 -152 2 -167 20 -185 24 -24 67 -26 98 -4 22 15 22 19 22
239 0 220 0 224 -22 239 -31 22 -354 23 -384 2z m-1414 -1506 c64 -15 118 -39
175 -81 83 -60 83 -61 35 -119 -23 -27 -44 -50 -47 -50 -2 0 -24 16 -47 35
-65 53 -121 75 -197 75 -61 0 -76 -5 -190 -61 -137 -67 -158 -68 -183 -7 -22
51 -5 71 111 133 149 80 234 99 343 75z m3395 -5 c81 -21 256 -116 275 -148
19 -34 4 -77 -34 -96 -27 -12 -35 -10 -145 45 -102 51 -124 59 -187 62 -61 3
-78 0 -122 -22 -28 -14 -67 -39 -85 -56 -19 -16 -39 -30 -43 -29 -5 0 -28 23
-51 51 -41 49 -42 53 -26 71 10 10 47 38 84 63 107 71 215 90 334 59z m-3573
-722 c32 -8 62 -21 67 -27 11 -14 -19 -136 -34 -136 -5 0 -34 9 -63 20 -117
45 -193 22 -334 -101 -63 -55 -110 -89 -124 -89 -26 0 -74 52 -74 80 0 19 128
149 195 198 38 28 132 66 185 76 37 6 117 -3 182 -21z m3863 -12 c82 -37 255
-189 270 -239 8 -28 -42 -82 -77 -82 -15 0 -55 29 -111 80 -48 44 -106 89
-128 101 -65 33 -137 36 -215 9 -55 -18 -68 -20 -75 -9 -13 21 -33 118 -26
126 4 3 30 14 59 25 73 26 231 20 303 -11z m-3816 -828 c8 -35 12 -66 8 -69
-3 -4 -43 -10 -89 -15 -130 -13 -172 -26 -223 -71 -54 -48 -71 -80 -115 -213
-18 -55 -40 -106 -49 -113 -27 -21 -81 -11 -104 20 l-21 28 43 128 c23 72 57
151 75 178 37 55 120 123 181 149 48 21 184 44 240 42 l40 -2 14 -62z m3686
46 c121 -22 242 -115 295 -226 26 -54 80 -227 80 -255 0 -49 -89 -79 -123 -40
-8 9 -27 58 -42 107 -39 128 -67 179 -122 219 -58 42 -98 54 -213 65 -50 5
-93 11 -96 13 -3 3 3 36 12 73 l17 67 71 -7 c39 -4 94 -11 121 -16z m-283
-680 c116 -45 215 -144 254 -251 17 -49 38 -278 28 -320 -8 -40 -56 -64 -95
-48 -37 16 -46 48 -52 184 -4 94 -9 116 -34 164 -37 73 -88 111 -210 157 -54
21 -113 44 -131 51 l-33 13 47 60 46 60 52 -20 c28 -12 86 -34 128 -50z
m-3102 5 c23 -30 40 -57 38 -58 -1 -2 -57 -23 -123 -47 -139 -51 -187 -81
-226 -139 -38 -56 -46 -91 -54 -232 -7 -125 -14 -140 -65 -153 -18 -4 -34 0
-53 15 -26 21 -27 24 -27 124 0 56 5 129 11 162 20 111 85 213 172 273 43 29
239 110 268 111 9 0 36 -25 59 -56z"/>
<path d="M1667 2046 c-33 -31 -35 -69 -4 -99 17 -18 50 -28 155 -46 122 -20
135 -21 157 -7 49 32 45 99 -9 121 -18 8 -75 21 -127 30 -52 8 -106 18 -120
21 -18 3 -33 -2 -52 -20z"/>
<path d="M3151 2045 c-137 -27 -161 -40 -161 -92 0 -34 28 -73 53 -73 27 0
243 41 269 51 51 20 54 89 6 123 -27 19 -13 20 -167 -9z"/>
<path d="M1774 1852 c-24 -16 -34 -54 -34 -130 0 -96 20 -132 74 -132 55 0 66
22 66 133 0 84 -3 100 -20 117 -20 20 -65 26 -86 12z"/>
<path d="M3136 1844 c-23 -23 -29 -54 -24 -145 3 -66 7 -83 23 -95 25 -18 65
-18 93 2 20 14 22 23 22 118 0 87 -3 105 -18 119 -23 21 -76 22 -96 1z"/>
<path d="M2142 1694 c-18 -12 -22 -25 -22 -68 0 -139 137 -242 277 -207 25 7
57 21 70 31 24 18 25 18 72 -6 102 -53 195 -41 271 35 70 70 91 168 47 209
-47 44 -108 17 -122 -54 -9 -50 -37 -74 -84 -74 -31 0 -44 6 -60 26 -12 15
-21 37 -21 49 0 33 -37 75 -66 75 -41 0 -63 -18 -75 -63 -18 -61 -45 -87 -90
-87 -44 0 -73 29 -83 85 -11 58 -67 82 -114 49z"/>
</g>
</svg>
